<?xml version="1.0" encoding="UTF-8" standalone="no" ?>
<!DOCTYPE svg PUBLIC "-//W3C//DTD SVG 1.1//EN" "http://www.w3.org/Graphics/SVG/1.1/DTD/svg11.dtd">
<svg xmlns="http://www.w3.org/2000/svg" xmlns:xlink="http://www.w3.org/1999/xlink" version="1.1" width="400" height="400" viewBox="0 0 400 400" xml:space="preserve">
<desc>Created with Fabric.js 3.6.2</desc>
<defs>
</defs>
<g transform="matrix(3.13 0 0 3.13 193.75 196.87)" id="fill"  >
<path style="stroke: none; stroke-width: 1; stroke-dasharray: none; stroke-linecap: butt; stroke-dashoffset: 0; stroke-linejoin: miter; stroke-miterlimit: 4; fill: rgb(217,218,226); fill-rule: nonzero; opacity: 1;"  transform=" translate(-30, -31)" d="M 51.129 3 H 8 A 5 5 0 0 0 3 8 v 5 H 13 V 59 H 57 V 8.871 A 5.87 5.87 0 0 0 51.129 3 Z" stroke-linecap="round" />
</g>
<g transform="matrix(3.13 0 0 3.13 193.75 196.87)" id="fill"  >
<path style="stroke: none; stroke-width: 1; stroke-dasharray: none; stroke-linecap: butt; stroke-dashoffset: 0; stroke-linejoin: miter; stroke-miterlimit: 4; fill: rgb(229,230,235); fill-rule: nonzero; opacity: 1;"  transform=" translate(-30, -31)" d="M 51.129 3 H 8 A 5 5 0 0 0 3 8 v 5 H 13 V 59 h 0 A 44 44 0 0 0 57 15 V 8.871 A 5.87 5.87 0 0 0 51.129 3 Z" stroke-linecap="round" />
</g>
<g transform="matrix(3.13 0 0 3.13 253.13 264.06)" id="fill"  >
<polygon style="stroke: none; stroke-width: 1; stroke-dasharray: none; stroke-linecap: butt; stroke-dashoffset: 0; stroke-linejoin: miter; stroke-miterlimit: 4; fill: rgb(4,104,173); fill-rule: nonzero; opacity: 1;"  points="0,-8.5 -12,3.5 -8,3.5 -8,8.5 0,0.5 8,8.5 8,2.5 12,2.5 0,-8.5 " />
</g>
<g transform="matrix(3.13 0 0 3.13 209.38 162.5)" id="fill"  >
<rect style="stroke: none; stroke-width: 1; stroke-dasharray: none; stroke-linecap: butt; stroke-dashoffset: 0; stroke-linejoin: miter; stroke-miterlimit: 4; fill: rgb(68,68,68); fill-rule: nonzero; opacity: 1;"  x="-15" y="-1" rx="0" ry="0" width="30" height="2" />
</g>
<g transform="matrix(3.13 0 0 3.13 209.38 181.25)" id="fill"  >
<rect style="stroke: none; stroke-width: 1; stroke-dasharray: none; stroke-linecap: butt; stroke-dashoffset: 0; stroke-linejoin: miter; stroke-miterlimit: 4; fill: rgb(68,68,68); fill-rule: nonzero; opacity: 1;"  x="-15" y="-1" rx="0" ry="0" width="30" height="2" />
</g>
<g transform="matrix(3.13 0 0 3.13 209.38 200)" id="fill"  >
<rect style="stroke: none; stroke-width: 1; stroke-dasharray: none; stroke-linecap: butt; stroke-dashoffset: 0; stroke-linejoin: miter; stroke-miterlimit: 4; fill: rgb(68,68,68); fill-rule: nonzero; opacity: 1;"  x="-15" y="-1" rx="0" ry="0" width="30" height="2" />
</g>
<g transform="matrix(3.13 0 0 3.13 209.38 218.75)" id="fill"  >
<rect style="stroke: none; stroke-width: 1; stroke-dasharray: none; stroke-linecap: butt; stroke-dashoffset: 0; stroke-linejoin: miter; stroke-miterlimit: 4; fill: rgb(68,68,68); fill-rule: nonzero; opacity: 1;"  x="-15" y="-1" rx="0" ry="0" width="30" height="2" />
</g>
<g transform="matrix(3.13 0 0 3.13 209.38 137.5)" id="fill"  >
<circle style="stroke: none; stroke-width: 1; stroke-dasharray: none; stroke-linecap: butt; stroke-dashoffset: 0; stroke-linejoin: miter; stroke-miterlimit: 4; fill: rgb(255,255,255); fill-rule: nonzero; opacity: 1;"  cx="0" cy="0" r="3" />
</g>
<g transform="matrix(3.13 0 0 3.13 125 125)" id="fill"  >
<path style="stroke: none; stroke-width: 1; stroke-dasharray: none; stroke-linecap: butt; stroke-dashoffset: 0; stroke-linejoin: miter; stroke-miterlimit: 4; fill: rgb(207,207,217); fill-rule: nonzero; opacity: 1;"  transform=" translate(-8, -8)" d="M 8 3 H 8 a 5 5 0 0 1 5 5 v 5 a 0 0 0 0 1 0 0 H 3 a 0 0 0 0 1 0 0 V 8 A 5 5 0 0 1 8 3 Z" stroke-linecap="round" />
</g>
<g transform="matrix(3.13 0 0 3.13 253.13 253.13)" id="fill"  >
<circle style="stroke: none; stroke-width: 1; stroke-dasharray: none; stroke-linecap: butt; stroke-dashoffset: 0; stroke-linejoin: miter; stroke-miterlimit: 4; fill: rgb(2,125,229); fill-rule: nonzero; opacity: 1;"  cx="0" cy="0" r="6" />
</g>
<g transform="matrix(3.13 0 0 3.13 253.13 253.13)" id="fill"  >
<circle style="stroke: none; stroke-width: 1; stroke-dasharray: none; stroke-linecap: butt; stroke-dashoffset: 0; stroke-linejoin: miter; stroke-miterlimit: 4; fill: rgb(204,234,255); fill-rule: nonzero; opacity: 1;"  cx="0" cy="0" r="4" />
</g>
<g transform="matrix(3.13 0 0 3.13 253.13 284.38)" id="fill"  >
<polygon style="stroke: none; stroke-width: 1; stroke-dasharray: none; stroke-linecap: butt; stroke-dashoffset: 0; stroke-linejoin: miter; stroke-miterlimit: 4; fill: rgb(0,0,0); fill-rule: nonzero; opacity: 1;"  points="-5,-1 -7,1 7,1 5,-1 -5,-1 " />
</g>
<g transform="matrix(3.13 0 0 3.13 193.75 196.88)" id="fill"  >
<path style="stroke: none; stroke-width: 1; stroke-dasharray: none; stroke-linecap: butt; stroke-dashoffset: 0; stroke-linejoin: miter; stroke-miterlimit: 4; fill: rgb(225,225,0); fill-rule: nonzero; opacity: 1;"  transform=" translate(-30, -31)" d="M 51.129 2 H 8 A 6.006 6.006 0 0 0 2 8 v 5 a 1 1 0 0 0 1 1 h 9 V 59 a 1 1 0 0 0 1 1 H 41 V 58 H 14 V 8 a 5.969 5.969 0 0 0 -1.54 -4 H 51.129 A 4.877 4.877 0 0 1 56 8.871 V 50.417 l 2 1.833 V 8.871 A 6.878 6.878 0 0 0 51.129 2 Z M 12 12 H 4 V 8 a 4 4 0 0 1 8 0 Z" stroke-linecap="round" />
</g>
<g transform="matrix(3.13 0 0 3.13 209.38 162.5)" id="fill"  >
<rect style="stroke: none; stroke-width: 1; stroke-dasharray: none; stroke-linecap: butt; stroke-dashoffset: 0; stroke-linejoin: miter; stroke-miterlimit: 4; fill: rgb(0,0,0); fill-rule: nonzero; opacity: 1;"  x="-15" y="-1" rx="0" ry="0" width="30" height="2" />
</g>
<g transform="matrix(3.13 0 0 3.13 209.38 181.25)" id="fill"  >
<rect style="stroke: none; stroke-width: 1; stroke-dasharray: none; stroke-linecap: butt; stroke-dashoffset: 0; stroke-linejoin: miter; stroke-miterlimit: 4; fill: rgb(0,0,0); fill-rule: nonzero; opacity: 1;"  x="-15" y="-1" rx="0" ry="0" width="30" height="2" />
</g>
<g transform="matrix(3.13 0 0 3.13 209.38 200)" id="fill"  >
<rect style="stroke: none; stroke-width: 1; stroke-dasharray: none; stroke-linecap: butt; stroke-dashoffset: 0; stroke-linejoin: miter; stroke-miterlimit: 4; fill: rgb(0,0,0); fill-rule: nonzero; opacity: 1;"  x="-15" y="-1" rx="0" ry="0" width="30" height="2" />
</g>
<g transform="matrix(3.13 0 0 3.13 209.38 218.75)" id="fill"  >
<rect style="stroke: none; stroke-width: 1; stroke-dasharray: none; stroke-linecap: butt; stroke-dashoffset: 0; stroke-linejoin: miter; stroke-miterlimit: 4; fill: rgb(0,0,0); fill-rule: nonzero; opacity: 1;"  x="-15" y="-1" rx="0" ry="0" width="30" height="2" />
</g>
<g transform="matrix(3.13 0 0 3.13 209.38 137.5)" id="fill"  >
<path style="stroke: none; stroke-width: 1; stroke-dasharray: none; stroke-linecap: butt; stroke-dashoffset: 0; stroke-linejoin: miter; stroke-miterlimit: 4; fill: rgb(0,0,0); fill-rule: nonzero; opacity: 1;"  transform=" translate(-35, -12)" d="M 39 12 a 4 4 0 1 0 -4 4 A 4 4 0 0 0 39 12 Z m -6 0 a 2 2 0 1 1 2 2 A 2 2 0 0 1 33 12 Z" stroke-linecap="round" />
</g>
</svg>