<?xml version="1.0" encoding="UTF-8" standalone="no" ?>
<!DOCTYPE svg PUBLIC "-//W3C//DTD SVG 1.1//EN" "http://www.w3.org/Graphics/SVG/1.1/DTD/svg11.dtd">
<svg xmlns="http://www.w3.org/2000/svg" xmlns:xlink="http://www.w3.org/1999/xlink" version="1.1" width="400" height="400" viewBox="0 0 400 400" xml:space="preserve">
<desc>Created with Fabric.js 3.6.2</desc>
<defs>
</defs>
<g transform="matrix(4.17 0 0 4.17 200 210.42)" id="Layer_1"  >
<path style="stroke: none; stroke-width: 1; stroke-dasharray: none; stroke-linecap: butt; stroke-dashoffset: 0; stroke-linejoin: miter; stroke-miterlimit: 4; fill: rgb(55,71,79); fill-rule: nonzero; opacity: 1;"  transform=" translate(-24, -26.5)" d="M 36 17 H 24 H 12 c 0 0 -3 10 -3 18 l 15 1 l 15 -1 C 39 27 36 17 36 17 z" stroke-linecap="round" />
</g>
<g transform="matrix(4.17 0 0 4.17 200 239.58)" id="Layer_1"  >
<path style="stroke: none; stroke-width: 1; stroke-dasharray: none; stroke-linecap: butt; stroke-dashoffset: 0; stroke-linejoin: miter; stroke-miterlimit: 4; fill: rgb(55,71,79); fill-rule: nonzero; opacity: 1;"  transform=" translate(-24, -33.5)" d="M 24 24 c -8.284 0 -15 7.686 -15 11 c 10 1 14.966 7.975 14.966 7.975 L 24 43 l 0.034 -0.025 C 24.034 42.975 29 36 39 35 C 39 31.686 32.284 24 24 24 z" stroke-linecap="round" />
</g>
<g transform="matrix(4.17 0 0 4.17 200 166.72)" id="Layer_1"  >
<path style="stroke: none; stroke-width: 1; stroke-dasharray: none; stroke-linecap: butt; stroke-dashoffset: 0; stroke-linejoin: miter; stroke-miterlimit: 4; fill: rgb(120,144,156); fill-rule: nonzero; opacity: 1;"  transform=" translate(-24, -16.01)" d="M 23.1 5.2 L 0.6 15.1 c -0.8 0.4 -0.8 1.5 0 1.9 l 22.5 9.9 c 0.6 0.2 1.2 0.2 1.8 0 L 47.4 17 c 0.8 -0.4 0.8 -1.5 0 -1.9 L 24.9 5.2 C 24.3 4.9 23.7 4.9 23.1 5.2 z" stroke-linecap="round" />
</g>
<g transform="matrix(4.17 0 0 4.17 160.42 210.42)" id="Layer_1"  >
<path style="stroke: none; stroke-width: 1; stroke-dasharray: none; stroke-linecap: butt; stroke-dashoffset: 0; stroke-linejoin: miter; stroke-miterlimit: 4; fill: rgb(255,179,0); fill-rule: nonzero; opacity: 1;"  transform=" translate(-14.5, -26.5)" d="M 5 39 c -0.552 0 -1 -0.447 -1 -1 V 18 c 0 -0.492 0.358 -0.911 0.844 -0.988 l 19 -3 c 0.542 -0.083 1.058 0.286 1.144 0.832 c 0.086 0.545 -0.286 1.058 -0.832 1.144 L 6 18.854 V 38 C 6 38.553 5.552 39 5 39 z" stroke-linecap="round" />
</g>
<g transform="matrix(4.17 0 0 4.17 120.83 277.08)" id="Layer_1"  >
<path style="stroke: none; stroke-width: 1; stroke-dasharray: none; stroke-linecap: butt; stroke-dashoffset: 0; stroke-linejoin: miter; stroke-miterlimit: 4; fill: rgb(255,179,0); fill-rule: nonzero; opacity: 1;"  transform=" translate(-5, -42.5)" d="M 5 38 c 1.7 0 3 1.3 3 3 s -3 6 -3 6 s -3 -4.3 -3 -6 S 3.3 38 5 38 z" stroke-linecap="round" />
</g>
<g transform="matrix(4.17 0 0 4.17 120.83 258.33)" id="Layer_1"  >
<circle style="stroke: none; stroke-width: 1; stroke-dasharray: none; stroke-linecap: butt; stroke-dashoffset: 0; stroke-linejoin: miter; stroke-miterlimit: 4; fill: rgb(255,202,40); fill-rule: nonzero; opacity: 1;"  cx="0" cy="0" r="2" />
</g>
</svg>