<svg xmlns="http://www.w3.org/2000/svg" width="32" height="32" viewBox="0 0 32 32" version="1.1"><path d="M 8.400 3.400 C 6.530 5.270, 5 7.665, 5 8.722 C 5 9.779, 4.259 12.819, 3.353 15.478 C 1.863 19.851, 1.855 20.421, 3.267 21.453 C 4.126 22.081, 4.979 23.923, 5.164 25.547 C 5.423 27.822, 6.074 28.579, 8 28.846 C 9.375 29.037, 10.860 29.824, 11.300 30.596 C 11.879 31.614, 14.255 32, 19.937 32 L 27.774 32 28.401 25.250 C 28.746 21.538, 29.288 15.909, 29.607 12.743 C 30.167 7.176, 30.070 6.870, 26.693 3.493 C 23.519 0.319, 22.679 0, 17.500 0 C 12.351 0, 11.471 0.329, 8.400 3.400 M 13 4.812 C 13 5.309, 11.803 5.667, 10.340 5.608 C 7.887 5.508, 7.508 6.061, 5.473 12.694 C 3.742 18.338, 3.546 19.996, 4.565 20.387 C 5.280 20.661, 6.008 22.374, 6.182 24.193 C 6.494 27.437, 6.586 27.496, 11 27.280 C 13.475 27.158, 14.938 27.308, 14.250 27.613 C 13.562 27.917, 13 28.804, 13 29.583 C 13 30.669, 14.615 31, 19.909 31 L 26.818 31 26.774 25.750 C 26.749 22.863, 27.324 18.163, 28.051 15.306 C 29.759 8.589, 28.373 4.712, 24.512 5.412 C 23.130 5.663, 22 5.531, 22 5.121 C 22 4.710, 19.975 4.269, 17.500 4.141 C 15.025 4.013, 13 4.315, 13 4.812 M 15.110 14.818 C 12.610 24.081, 12.617 24, 14.390 24 C 15.279 24, 16.542 21.179, 17.890 16.182 C 20.390 6.919, 20.383 7, 18.610 7 C 17.721 7, 16.458 9.821, 15.110 14.818 M 8.447 13.059 C 6.450 15.266, 7.054 17.370, 10.269 19.398 C 12.496 20.803, 13.694 19.341, 12.233 17.001 C 11.480 15.795, 11.402 14.870, 12.020 14.487 C 13.477 13.587, 13.206 11, 11.655 11 C 10.915 11, 9.472 11.926, 8.447 13.059 M 20 12.441 C 20 13.234, 20.441 14.154, 20.980 14.487 C 21.598 14.870, 21.520 15.795, 20.767 17.001 C 19.306 19.341, 20.504 20.803, 22.731 19.398 C 25.946 17.370, 26.550 15.266, 24.553 13.059 C 22.396 10.675, 20 10.350, 20 12.441" stroke="none" fill="#d9bc16" fill-rule="evenodd"/><path d="M 13 4.812 C 13 5.309, 11.803 5.667, 10.340 5.608 C 7.887 5.508, 7.508 6.061, 5.473 12.694 C 3.742 18.338, 3.546 19.996, 4.565 20.387 C 5.280 20.661, 6.008 22.374, 6.182 24.193 C 6.494 27.437, 6.586 27.496, 11 27.280 C 13.475 27.158, 14.938 27.308, 14.250 27.613 C 13.562 27.917, 13 28.804, 13 29.583 C 13 30.669, 14.615 31, 19.909 31 L 26.818 31 26.774 25.750 C 26.749 22.863, 27.324 18.163, 28.051 15.306 C 29.759 8.589, 28.373 4.712, 24.512 5.412 C 23.130 5.663, 22 5.531, 22 5.121 C 22 4.710, 19.975 4.269, 17.500 4.141 C 15.025 4.013, 13 4.315, 13 4.812 M 15.110 14.818 C 12.610 24.081, 12.617 24, 14.390 24 C 15.279 24, 16.542 21.179, 17.890 16.182 C 20.390 6.919, 20.383 7, 18.610 7 C 17.721 7, 16.458 9.821, 15.110 14.818 M 8.447 13.059 C 6.450 15.266, 7.054 17.370, 10.269 19.398 C 12.496 20.803, 13.694 19.341, 12.233 17.001 C 11.480 15.795, 11.402 14.870, 12.020 14.487 C 13.477 13.587, 13.206 11, 11.655 11 C 10.915 11, 9.472 11.926, 8.447 13.059 M 20 12.441 C 20 13.234, 20.441 14.154, 20.980 14.487 C 21.598 14.870, 21.520 15.795, 20.767 17.001 C 19.306 19.341, 20.504 20.803, 22.731 19.398 C 25.946 17.370, 26.550 15.266, 24.553 13.059 C 22.396 10.675, 20 10.350, 20 12.441" stroke="none" fill="#201913" fill-rule="evenodd"/></svg>