<?xml version="1.0" standalone="no"?>
<!DOCTYPE svg PUBLIC "-//W3C//DTD SVG 20010904//EN"
 "http://www.w3.org/TR/2001/REC-SVG-20010904/DTD/svg10.dtd">
<svg version="1.0" xmlns="http://www.w3.org/2000/svg"
 width="700.000000pt" height="440.000000pt" viewBox="0 0 700.000000 440.000000"
 preserveAspectRatio="xMidYMid meet">

<g transform="translate(0.000000,440.000000) scale(0.100000,-0.100000)"
fill="#000000" stroke="none">
<path d="M4760 2355 l0 -185 35 0 c34 0 35 1 35 39 0 22 6 44 15 51 9 7 17 11
19 9 1 -2 17 -25 35 -51 30 -45 34 -48 77 -48 51 0 52 -3 -13 82 -24 31 -43
63 -43 70 0 8 20 34 45 58 25 24 45 48 45 52 0 4 -17 8 -39 8 -33 0 -45 -7
-90 -54 l-51 -55 0 105 0 104 -35 0 -35 0 0 -185z"/>
<path d="M2490 2345 l0 -175 36 0 37 0 -5 123 -5 122 39 -123 40 -123 35 3 36
3 38 114 c21 63 40 115 41 117 2 1 1 -51 -1 -117 l-3 -119 41 0 41 0 0 175 0
175 -53 0 -53 0 -38 -117 c-36 -111 -56 -155 -56 -124 0 7 -16 64 -36 127
l-35 114 -50 0 -49 0 0 -175z"/>
<path d="M3630 2345 l0 -175 40 0 40 0 0 64 c0 92 18 93 72 6 42 -69 44 -70
86 -70 23 0 42 3 42 6 0 4 -25 45 -55 93 -30 48 -55 90 -55 94 0 5 25 39 55
76 30 38 55 71 55 75 0 4 -19 6 -42 4 -39 -3 -47 -8 -98 -72 l-55 -69 -3 71
-3 72 -39 0 -40 0 0 -175z"/>
<path d="M1962 2403 c-78 -89 -82 -97 -69 -117 8 -11 19 -21 24 -21 5 0 44 41
88 90 43 50 90 102 104 118 l25 27 -45 0 c-43 -1 -46 -3 -127 -97z"/>
<path d="M3246 2465 c-3 -13 -15 -29 -26 -35 -23 -12 -27 -50 -6 -50 11 0 15
-21 18 -91 4 -109 14 -122 93 -117 46 3 50 5 53 30 3 24 -1 27 -30 30 l-33 3
-3 73 -3 72 36 0 c32 0 35 2 35 30 0 28 -3 30 -35 30 -31 0 -35 3 -35 25 0 21
-5 25 -29 25 -22 0 -30 -6 -35 -25z"/>
<path d="M2965 2428 c-11 -6 -21 -12 -23 -14 -2 -1 1 -11 7 -23 10 -17 18 -19
62 -14 38 4 53 2 60 -8 15 -24 11 -26 -45 -34 -76 -9 -106 -34 -106 -89 0 -29
6 -48 18 -59 23 -21 100 -22 129 -2 19 13 22 13 27 0 3 -8 17 -15 31 -15 l25
0 0 110 c0 104 -1 112 -25 135 -20 21 -34 25 -82 25 -32 0 -67 -6 -78 -12z
m115 -147 c0 -39 -39 -68 -70 -51 -24 13 -25 23 -4 44 17 17 74 22 74 7z"/>
<path d="M3988 2423 c-29 -18 -58 -77 -58 -118 0 -44 31 -105 61 -120 36 -19
119 -19 145 0 73 50 69 194 -5 238 -37 22 -108 21 -143 0z m106 -59 c18 -18
21 -85 6 -115 -25 -45 -90 -9 -90 50 0 66 47 103 84 65z"/>
<path d="M4210 2432 c0 -4 22 -64 48 -132 l48 -125 40 -3 40 -3 47 124 c26 69
47 130 47 136 0 8 -14 11 -37 9 -38 -3 -38 -3 -68 -89 l-30 -86 -29 89 -29 88
-39 0 c-21 0 -38 -3 -38 -8z"/>
<path d="M4540 2428 c-61 -33 -47 -104 29 -142 27 -14 53 -31 57 -37 10 -16
-17 -30 -45 -24 -81 20 -81 20 -81 -13 0 -36 13 -42 86 -42 85 0 114 20 114
81 0 40 -14 56 -77 88 -60 30 -56 45 11 37 50 -5 54 -4 60 16 3 13 1 27 -4 32
-16 16 -122 18 -150 4z"/>
<path d="M5020 2430 c0 -6 21 -61 46 -123 25 -61 46 -122 46 -134 1 -33 -20
-53 -53 -53 -26 0 -29 -4 -29 -30 0 -29 2 -30 44 -30 71 0 88 22 156 204 33
87 60 162 60 167 0 5 -18 9 -39 9 l-39 0 -29 -86 -28 -85 -28 85 -28 86 -40 0
c-21 0 -39 -5 -39 -10z"/>
<path d="M1845 2270 c-21 -23 -28 -10 75 -127 60 -70 65 -73 107 -73 l45 0
-58 68 c-76 88 -137 152 -145 152 -3 0 -14 -9 -24 -20z"/>
<path d="M2064 2204 l76 -86 -97 -112 c-53 -61 -103 -119 -111 -128 -14 -17
-12 -18 30 -18 45 0 46 0 144 113 54 61 104 120 112 129 13 15 7 26 -59 102
-73 84 -74 84 -122 85 l-49 1 76 -86z"/>
<path d="M3392 2113 c3 -16 16 -18 103 -18 87 0 100 2 103 18 3 15 -7 17 -103
17 -96 0 -106 -2 -103 -17z"/>
<path d="M3310 1994 c0 -22 -3 -25 -23 -20 -36 9 -61 -15 -61 -59 0 -42 15
-56 62 -53 l32 2 0 78 c0 43 -2 78 -5 78 -3 0 -5 -12 -5 -26z m-11 -56 c12
-34 2 -58 -24 -58 -28 0 -41 30 -25 60 14 26 39 26 49 -2z"/>
<path d="M3490 1994 c0 -22 -4 -25 -22 -21 -37 10 -58 -9 -58 -52 0 -47 15
-61 63 -59 l37 1 0 79 c0 45 -4 78 -10 78 -5 0 -10 -12 -10 -26z m-10 -49 c20
-24 4 -65 -25 -65 -22 0 -25 5 -25 33 0 48 24 64 50 32z"/>
<path d="M3880 1940 c0 -47 4 -80 10 -80 6 0 10 33 10 80 0 47 -4 80 -10 80
-6 0 -10 -33 -10 -80z"/>
<path d="M2460 1935 c0 -43 4 -75 10 -75 6 0 10 14 10 30 0 27 3 30 30 30 17
0 30 5 30 10 0 6 -13 10 -30 10 -25 0 -30 4 -30 25 0 21 5 25 30 25 17 0 30 5
30 10 0 6 -18 10 -40 10 l-40 0 0 -75z"/>
<path d="M2902 1980 c-7 -11 -8 -20 -3 -20 6 0 11 -21 13 -47 3 -41 6 -48 26
-51 12 -2 22 1 22 7 0 6 -6 10 -12 9 -9 -2 -14 12 -16 39 -2 33 1 42 15 46 17
4 17 5 1 6 -10 0 -18 8 -18 16 0 21 -13 19 -28 -5z"/>
<path d="M2600 1971 c-8 -6 -18 -7 -22 -5 -4 3 -8 -20 -8 -50 0 -31 5 -56 10
-56 6 0 10 21 10 46 0 37 4 47 20 51 11 3 20 9 20 14 0 11 -11 11 -30 0z"/>
<path d="M2672 1964 c-25 -17 -31 -71 -10 -92 32 -32 88 -1 88 48 0 25 -29 60
-50 60 -3 0 -16 -7 -28 -16z m48 -18 c6 -8 10 -25 8 -38 -4 -33 -52 -33 -56 0
-7 47 21 69 48 38z"/>
<path d="M2803 1973 c-21 -4 -23 -10 -23 -59 0 -66 18 -72 22 -6 3 40 6 47 25
50 23 3 28 -6 36 -73 2 -16 5 -5 6 26 1 44 -3 58 -15 63 -9 3 -19 5 -22 5 -4
-1 -17 -4 -29 -6z"/>
<path d="M3001 1964 c-14 -10 -21 -26 -21 -48 0 -39 15 -56 51 -56 40 0 46 18
7 22 -46 4 -49 28 -3 28 33 0 36 2 33 26 -4 34 -38 48 -67 28z m47 -21 c2 -8
-6 -13 -22 -13 -25 0 -33 10 -19 24 10 10 36 3 41 -11z"/>
<path d="M3123 1973 c-21 -4 -23 -10 -23 -59 0 -66 18 -72 22 -6 3 40 6 47 25
50 23 3 28 -6 36 -73 2 -16 5 -5 6 26 1 44 -3 58 -15 63 -9 3 -19 5 -22 5 -4
-1 -17 -4 -29 -6z"/>
<path d="M3567 1973 c-27 -7 -40 -49 -25 -81 14 -29 62 -42 81 -23 8 8 1 11
-25 11 -23 0 -38 6 -42 15 -4 12 3 15 35 15 36 0 40 3 37 21 -4 26 -36 48 -61
42z m41 -30 c2 -8 -6 -13 -22 -13 -25 0 -33 10 -19 24 10 10 36 3 41 -11z"/>
<path d="M3781 1964 c-14 -10 -21 -26 -21 -48 0 -39 15 -56 51 -56 40 0 46 18
7 22 -46 4 -49 28 -3 28 33 0 36 2 33 26 -4 34 -38 48 -67 28z m47 -21 c2 -8
-6 -13 -22 -13 -25 0 -33 10 -19 24 10 10 36 3 41 -11z"/>
<path d="M3952 1964 c-41 -29 -22 -104 26 -104 37 0 52 17 52 56 0 29 -27 64
-50 64 -3 0 -16 -7 -28 -16z m53 -44 c0 -31 -3 -35 -25 -35 -19 0 -26 6 -28
23 -5 36 5 54 30 50 19 -2 23 -9 23 -38z"/>
<path d="M4083 1973 c-22 -4 -23 -9 -23 -84 0 -46 4 -79 10 -79 6 0 10 13 10
29 0 25 3 28 27 23 50 -10 75 71 31 102 -12 9 -25 15 -28 15 -3 -1 -15 -4 -27
-6z m53 -38 c9 -36 -2 -57 -28 -53 -39 5 -38 78 1 78 14 0 23 -9 27 -25z"/>
<path d="M4217 1973 c-27 -7 -40 -49 -25 -81 14 -29 62 -42 81 -23 8 8 1 11
-25 11 -23 0 -38 6 -42 15 -4 12 3 15 35 15 36 0 40 3 37 21 -4 26 -36 48 -61
42z m41 -30 c2 -8 -6 -13 -22 -13 -25 0 -33 10 -19 24 10 10 36 3 41 -11z"/>
<path d="M4340 1971 c-8 -6 -18 -7 -22 -5 -4 3 -8 -20 -8 -50 0 -31 5 -56 10
-56 6 0 10 21 10 46 0 37 4 47 20 51 11 3 20 9 20 14 0 11 -11 11 -30 0z"/>
<path d="M3660 1918 c11 -29 20 -54 20 -55 0 -2 5 -3 10 -3 10 0 50 81 50 101
0 24 -20 4 -33 -33 -10 -28 -17 -38 -21 -28 -3 8 -10 27 -15 43 -6 15 -15 27
-21 27 -5 0 -1 -23 10 -52z"/>
</g>
</svg>
