<?xml version="1.0" standalone="no"?>
<!DOCTYPE svg PUBLIC "-//W3C//DTD SVG 20010904//EN"
 "http://www.w3.org/TR/2001/REC-SVG-20010904/DTD/svg10.dtd">
<svg version="1.0" xmlns="http://www.w3.org/2000/svg"
 width="30.000000pt" height="30.000000pt" viewBox="0 0 30.000000 30.000000"
 preserveAspectRatio="xMidYMid meet">

<g transform="translate(0.000000,30.000000) scale(0.100000,-0.100000)"
fill="#000000" stroke="none">
<path d="M64 236 c-34 -34 -34 -35 -32 -118 l3 -84 83 -2 c83 -2 84 -2 118 32
30 30 34 40 34 86 0 46 -4 56 -34 86 -30 30 -40 34 -86 34 -46 0 -56 -4 -86
-34z m60 -41 c3 -8 3 -21 0 -28 -7 -19 24 -42 55 -42 32 0 36 -29 4 -33 -28
-4 -93 53 -93 82 0 36 23 50 34 21z"/>
</g>
</svg>
